<svg width="142" height="155" viewBox="0 0 142 155" fill="none" xmlns="http://www.w3.org/2000/svg">
<path d="M64.392 0.143433C65.6628 -0.0739864 66.9409 -0.0408223 68.1625 0.219604C67.8761 0.261579 67.5904 0.346291 67.3148 0.47644L53.8344 6.84558C51.4313 7.98123 51.5825 11.4502 54.0756 12.3719L73.6527 19.6093C76.1456 20.5303 78.5164 17.9947 77.4301 15.5692L71.3344 1.96277C71.2097 1.68473 71.0479 1.43481 70.8578 1.21667C71.955 1.81355 72.9481 2.61932 73.7719 3.61121L89.9232 23.0585C92.2057 25.8068 92.8485 29.564 91.6097 32.9149L89.4896 38.6493H111.132L115.122 16.7108C115.342 15.5012 115.979 14.4069 116.923 13.619C117.867 12.8312 119.057 12.3996 120.286 12.3993H136.516C137.908 12.3993 139.243 12.952 140.228 13.9364C141.212 14.921 141.766 16.2569 141.766 17.6493C141.766 19.0416 141.212 20.3767 140.228 21.3612C139.243 22.3457 137.908 22.8993 136.516 22.8993H124.703L107.93 114.965C107.436 117.695 106.229 120.246 104.432 122.36C106.912 124.677 108.702 127.635 109.604 130.907C110.506 134.179 110.483 137.637 109.539 140.897C108.596 144.157 106.768 147.092 104.258 149.377C101.748 151.661 98.6549 153.207 95.3207 153.841C91.9865 154.474 88.5416 154.172 85.3685 152.968C82.1956 151.763 79.418 149.704 77.3441 147.017C75.2702 144.331 73.9804 141.122 73.6185 137.748C73.2567 134.373 73.8371 130.964 75.2943 127.899H45.4877C46.6621 130.358 47.2698 133.049 47.266 135.774C47.2659 139.408 46.1882 142.961 44.1693 145.982C42.1502 149.004 39.2798 151.359 35.9222 152.75C32.5647 154.141 28.8703 154.505 25.306 153.796C21.7418 153.087 18.4676 151.337 15.8978 148.767C13.3281 146.198 11.5776 142.924 10.8685 139.359C10.1595 135.795 10.5237 132.1 11.9144 128.742C13.3051 125.385 15.6604 122.515 18.682 120.496C21.7038 118.477 25.2568 117.399 28.891 117.399H92.4359C93.6652 117.399 94.8555 116.967 95.7992 116.18C96.7429 115.392 97.3801 114.297 97.6 113.088L99.681 101.649H23.556C19.8676 101.649 16.2957 100.354 13.4642 97.9901C10.6329 95.6264 8.72128 92.3436 8.06189 88.7147L0.0814209 44.8378C-0.0536533 44.0795 -0.0204524 43.3004 0.179077 42.5565C0.378685 41.8125 0.74014 41.121 1.23669 40.5321C1.72949 39.9425 2.34622 39.4678 3.04236 39.1425C3.73845 38.8172 4.49764 38.6492 5.26599 38.6493H22.4174C22.3238 37.2645 22.5176 35.8531 23.015 34.5077L31.7806 10.7958C33.0196 7.44511 35.9528 5.00975 39.474 4.4071L64.392 0.143433ZM28.891 127.899C26.8024 127.899 24.7995 128.729 23.3226 130.206C21.8458 131.683 21.016 133.686 21.016 135.774C21.016 137.332 21.4779 138.854 22.3431 140.149C23.2085 141.444 24.4384 142.454 25.8773 143.05C27.3162 143.646 28.8996 143.802 30.4271 143.498C31.9547 143.194 33.358 142.444 34.4594 141.343C35.5607 140.241 36.3108 138.838 36.6146 137.31C36.9185 135.783 36.7624 134.2 36.1664 132.761C35.5704 131.322 34.561 130.092 33.266 129.226C31.971 128.361 30.4485 127.899 28.891 127.899ZM91.891 127.899C89.8024 127.899 87.7995 128.729 86.3226 130.206C84.8458 131.683 84.016 133.686 84.016 135.774C84.016 137.332 84.4779 138.854 85.3431 140.149C86.2085 141.444 87.4384 142.454 88.8773 143.05C90.3162 143.646 91.8996 143.802 93.4271 143.498C94.9547 143.194 96.358 142.444 97.4594 141.343C98.5607 140.241 99.3108 138.838 99.6146 137.31C99.9185 135.783 99.7624 134.2 99.1664 132.761C98.5704 131.322 97.561 130.092 96.266 129.226C94.971 128.361 93.4485 127.899 91.891 127.899ZM61.0365 30.7079C60.5672 28.5729 58.0445 27.6396 56.2992 28.9559L44.767 37.6532C44.4079 37.924 44.1231 38.2665 43.9213 38.6493H62.7816L61.0365 30.7079Z" fill="#6BB556"/>
</svg>
